<?xml version="1.0" standalone="no"?><!DOCTYPE svg PUBLIC "-//W3C//DTD SVG 1.1//EN" "http://www.w3.org/Graphics/SVG/1.1/DTD/svg11.dtd"><svg t="1571991761318" class="icon" viewBox="0 0 1024 1024" version="1.1" xmlns="http://www.w3.org/2000/svg" p-id="10823" xmlns:xlink="http://www.w3.org/1999/xlink" width="32" height="32"><defs><style type="text/css"></style></defs><path d="M864 128H672c-17.7 0-32 14.3-32 32s14.3 32 32 32h114.7L585.4 393.4c-12.5 12.5-12.5 32.8 0 45.3 6.2 6.2 14.4 9.4 22.6 9.4s16.4-3.1 22.6-9.4L832 237.3V352c0 17.7 14.3 32 32 32s32-14.3 32-32V160c0-17.7-14.3-32-32-32zM393.4 585.4L192 786.7V672c0-17.7-14.3-32-32-32s-32 14.3-32 32v192c0 17.7 14.3 32 32 32h192c17.7 0 32-14.3 32-32s-14.3-32-32-32H237.3l201.4-201.4c12.5-12.5 12.5-32.8 0-45.3-12.6-12.4-32.8-12.4-45.3 0.1z" p-id="10824" fill="#707070"></path></svg>